<svg width="174" height="42" viewBox="0 0 174 42" fill="none" xmlns="http://www.w3.org/2000/svg">
<path d="M59.2992 15.4322C58.9539 14.7423 58.4234 14.1319 57.7598 13.6277C57.1231 13.1501 56.3535 12.7785 55.4777 12.5397C54.6288 12.2743 53.6733 12.1682 52.6385 12.1682H45.0752V30.7441H48.127V23.3137H52.6385C53.6733 23.3137 54.6288 23.181 55.4777 22.9422C56.3535 22.6768 57.1231 22.3053 57.7598 21.8276C58.4234 21.3234 58.9539 20.7131 59.2992 20.0231C59.6708 19.3332 59.8297 18.5636 59.8297 17.7409C59.8297 16.9183 59.6708 16.1488 59.2992 15.4322ZM56.5129 18.8555C56.3535 19.1739 56.1148 19.4393 55.7965 19.6782C55.4777 19.9435 55.0532 20.1558 54.5227 20.2885C53.9916 20.4477 53.3549 20.5273 52.6385 20.5273H48.127V14.9546H52.6385C53.3549 14.9546 53.9916 15.0342 54.5227 15.1669C55.0532 15.3261 55.4777 15.5384 55.8229 15.7772C56.1412 16.016 56.3535 16.2814 56.5129 16.5999C56.6987 16.9448 56.7784 17.3164 56.7784 17.7409C56.7784 18.139 56.6987 18.5105 56.5129 18.8555Z" fill="white"/>
<path d="M67.8542 16.9978C63.7412 16.9978 60.3975 20.1027 60.3975 23.924C60.3975 27.7453 63.7412 30.8501 67.8542 30.8501C71.9941 30.8501 75.3378 27.7453 75.3378 23.924C75.3378 20.1027 71.9941 16.9978 67.8542 16.9978ZM67.8542 28.0637C65.4395 28.0637 63.4493 26.2061 63.4493 23.924C63.4493 21.6418 65.4395 19.7842 67.8542 19.7842C70.2958 19.7842 72.286 21.6418 72.286 23.924C72.286 26.2061 70.2958 28.0637 67.8542 28.0637Z" fill="white"/>
<path d="M80.5411 30.5581V11.9822H77.4893V30.5581H80.5411Z" fill="white"/>
<path d="M97.2805 17.3162H93.9637L92.902 19.5983L89.6116 27.1083L85.4453 17.3162H82.1279L88.0458 30.16L85.4184 35.892H88.7358L97.148 17.5815L97.2805 17.3162Z" fill="white"/>
<path d="M111.608 30.5581L111.581 23.34C111.608 22.0131 111.395 20.4475 110.413 19.0675C109.936 18.4041 109.219 17.7938 108.37 17.3957C107.548 16.9976 106.566 16.865 105.717 16.8915C105.292 16.918 104.841 16.9711 104.416 17.0773C103.965 17.21 103.541 17.3692 103.169 17.5815C102.691 17.8734 102.267 18.2184 101.922 18.6164V11.9822H98.8701V30.5581H101.922V23.8177C101.948 23.6584 101.948 23.4992 101.975 23.34C102.028 22.7562 102.161 22.2254 102.373 21.7212C102.612 21.2436 102.904 20.7925 103.275 20.4475C103.62 20.129 104.018 19.9167 104.443 19.784C104.841 19.6779 105.265 19.6248 105.717 19.6779C106.619 19.7575 107.256 20.0759 107.76 20.7129C107.999 21.0313 108.211 21.4293 108.344 21.8805C108.476 22.3316 108.529 22.7827 108.529 23.34V30.5581H111.608Z" fill="white"/>
<path d="M127.826 25.0651H128.356C128.436 24.6936 128.462 24.322 128.462 23.924C128.462 20.1027 125.119 16.9978 120.979 16.9978C116.866 16.9978 113.522 20.1027 113.522 23.924C113.522 27.7453 117.105 30.8501 121.483 30.8501C124.217 30.8501 126.684 29.656 128.144 27.7453L125.305 26.5511C124.402 27.4799 122.996 28.0637 121.483 28.0637C119.254 28.0637 117.37 26.7899 116.76 25.0651H127.826ZM116.76 22.7829C117.291 21.058 118.989 19.7842 120.979 19.7842C122.996 19.7842 124.694 21.058 125.225 22.7829H116.76Z" fill="white"/>
<path d="M142.426 11.9822V19.1206C141.842 18.5368 141.125 18.0061 140.329 17.6346C139.453 17.2365 138.472 17.0242 137.463 16.9976C136.481 16.9976 135.473 17.1569 134.544 17.5018C133.616 17.8734 132.793 18.4041 132.103 19.041C130.75 20.3413 129.98 22.1458 130.007 23.9238C129.98 25.7018 130.75 27.5063 132.103 28.8066C132.793 29.47 133.616 30.0007 134.544 30.3457C135.473 30.7173 136.481 30.8765 137.463 30.8499C138.472 30.8234 139.453 30.6111 140.329 30.2131C141.125 29.8415 141.842 29.3373 142.426 28.727V30.558H145.477V11.9822H142.426ZM140.807 27.0552C140.329 27.4267 139.772 27.692 139.215 27.8512C138.631 28.0105 138.047 28.0901 137.463 28.0636C136.296 28.0105 135.181 27.5859 134.359 26.8163C133.536 26.0733 133.058 25.0118 133.058 23.9238C133.058 22.8358 133.536 21.7743 134.359 21.0313C135.181 20.2617 136.296 19.8371 137.463 19.784C138.047 19.7575 138.631 19.8371 139.215 19.9963C139.772 20.1555 140.329 20.4475 140.807 20.819C141.789 21.5355 142.426 22.7031 142.426 23.9238C142.426 25.1445 141.789 26.3121 140.807 27.0552Z" fill="white"/>
<path d="M156.568 16.9712C156.117 16.9181 155.666 16.8916 155.242 16.8916C154.366 16.9447 153.464 17.1835 152.72 17.6346C152.137 17.9531 151.686 18.4042 151.341 18.8819V17.2896H148.289V30.5581H151.341V23.8443C151.341 23.6851 151.367 23.4993 151.394 23.3401C151.42 22.7563 151.553 22.199 151.765 21.6948C152.004 21.1906 152.322 20.7129 152.694 20.3944C153.092 20.0495 153.517 19.8637 153.941 19.7576C154.366 19.6514 154.764 19.6249 155.242 19.678C155.693 19.7045 156.064 19.8107 156.382 19.9964C156.489 20.0495 156.568 20.1026 156.674 20.1556L157.364 17.1835C157.099 17.1039 156.834 17.0243 156.568 16.9712Z" fill="white"/>
<path d="M170.127 17.2897V19.1208C169.543 18.537 168.827 18.0062 168.03 17.6347C167.155 17.2367 166.173 17.0244 165.164 16.9978C164.183 16.9978 163.174 17.1571 162.246 17.502C161.316 17.8736 160.494 18.4043 159.804 19.0412C158.45 20.3415 157.681 22.146 157.708 23.924C157.681 25.7019 158.45 27.5065 159.804 28.8068C160.494 29.4702 161.316 30.0009 162.246 30.3459C163.174 30.6909 164.183 30.8767 165.164 30.8501C166.173 30.8236 167.155 30.6113 168.03 30.2132C168.827 29.8417 169.543 29.3375 170.127 28.7272V30.5582H173.179V17.2897H170.127ZM168.508 27.0553C168.03 27.4269 167.473 27.6922 166.916 27.8514C166.332 28.0107 165.748 28.0903 165.164 28.0637C163.997 28.0107 162.882 27.5861 162.06 26.8165C161.237 26.0735 160.76 25.012 160.76 23.924C160.76 22.836 161.237 21.7745 162.06 21.0315C162.882 20.2619 163.997 19.8373 165.164 19.7842C165.748 19.7577 166.332 19.8373 166.916 19.9965C167.473 20.1557 168.03 20.4476 168.508 20.8191C169.49 21.5357 170.127 22.7033 170.127 23.924C170.127 25.1447 169.49 26.3123 168.508 27.0553Z" fill="white"/>
<path d="M17.5892 1.55688L34.4185 11.2733V30.7062L17.5892 40.4228L0.759766 30.7062V11.2733L17.5892 1.55688Z" stroke="url(#paint0_linear_25_1165)" stroke-width="1.5"/>
<path d="M28.6173 21.0073L27.9578 20.6265V21.3881L28.6173 21.0073ZM34.2718 11.2134L34.9313 11.5942L34.6526 10.5539L34.2718 11.2134ZM17.7239 1.65951L18.1047 1L17.0644 1.27873L17.7239 1.65951ZM12.0697 11.4529V12.2145L12.7292 11.8337L12.0697 11.4529ZM0.761564 11.4529V10.6914L0 11.4529H0.761564ZM0.761564 30.5608H0L0.761564 31.3223V30.5608ZM12.0692 30.5608L12.7287 30.18L12.0692 29.7992V30.5608ZM17.7156 40.3405L17.0559 40.7213L18.0963 41L17.7156 40.3405ZM34.2633 30.7866L34.6441 31.4462L34.923 30.4058L34.2633 30.7866ZM12.205 11.6869L12.5858 11.0274L11.4434 11.6869H12.205ZM12.205 30.3083H11.4434L12.5858 30.9679L12.205 30.3083ZM28.3316 20.9976L28.7124 21.6571V20.338L28.3316 20.9976ZM29.2769 21.3881L34.9313 11.5942L33.6122 10.8327L27.9578 20.6265L29.2769 21.3881ZM34.6526 10.5539L18.1047 1L17.3431 2.31903L33.891 11.873L34.6526 10.5539ZM17.0644 1.27873L11.4102 11.0721L12.7292 11.8337L18.3834 2.0403L17.0644 1.27873ZM0.761564 12.2145H12.0697V10.6914H0.761564V12.2145ZM1.52313 30.5608V11.4529H0V30.5608H1.52313ZM12.0692 29.7992H0.761564V31.3223H12.0692V29.7992ZM18.375 39.9597L12.7287 30.18L11.4096 30.9416L17.0559 40.7213L18.375 39.9597ZM33.8826 30.1271L17.3348 39.681L18.0963 41L34.6441 31.4462L33.8826 30.1271ZM27.9578 21.3881L33.6039 31.1674L34.923 30.4058L29.2769 20.6265L27.9578 21.3881ZM11.4434 11.6869V30.3083H12.9665V11.6869H11.4434ZM12.5858 30.9679L28.7124 21.6571L27.9508 20.338L11.8242 29.6488L12.5858 30.9679ZM11.8242 12.3464L27.9508 21.6571L28.7124 20.338L12.5858 11.0274L11.8242 12.3464Z" fill="url(#paint1_linear_25_1165)"/>
<defs>
<linearGradient id="paint0_linear_25_1165" x1="-1.84372" y1="40.4228" x2="18.7396" y2="-6.20148" gradientUnits="userSpaceOnUse">
<stop stop-color="#0CFFF0"/>
<stop offset="1" stop-color="#0CFFA7"/>
</linearGradient>
<linearGradient id="paint1_linear_25_1165" x1="9.23493" y1="45.2368" x2="2.15274" y2="0.950955" gradientUnits="userSpaceOnUse">
<stop stop-color="#0CFFF0"/>
<stop offset="1" stop-color="#0CFFA7"/>
</linearGradient>
</defs>
</svg>
